<mxfile host="app.diagrams.net" agent="Mozilla/5.0 (Windows NT 10.0; Win64; x64) AppleWebKit/537.36 (KHTML, like Gecko) Chrome/131.0.0.0 Safari/537.36" version="24.9.2">
  <diagram id="C5RBs43oDa-KdzZeNtuy" name="Page-1">
    <mxGraphModel dx="1222" dy="634" grid="1" gridSize="10" guides="1" tooltips="1" connect="1" arrows="1" fold="1" page="1" pageScale="1" pageWidth="1169" pageHeight="1654" background="none" math="0" shadow="0">
      <root>
        <mxCell id="WIyWlLk6GJQsqaUBKTNV-0" />
        <mxCell id="WIyWlLk6GJQsqaUBKTNV-1" parent="WIyWlLk6GJQsqaUBKTNV-0" />
        <mxCell id="H0ZH2b96q6sk3cJOSCIK-0" value="&lt;font style=&quot;font-size: 23px;&quot;&gt;Vendora Application WorkFlow&lt;/font&gt;" style="rounded=0;whiteSpace=wrap;html=1;labelBackgroundColor=none;fillColor=#09555B;strokeColor=#BAC8D3;fontColor=#EEEEEE;" parent="WIyWlLk6GJQsqaUBKTNV-1" vertex="1">
          <mxGeometry x="430" y="10" width="320" height="60" as="geometry" />
        </mxCell>
        <mxCell id="k7PWy4P7F-KXpjFMV805-2" style="edgeStyle=orthogonalEdgeStyle;rounded=0;orthogonalLoop=1;jettySize=auto;html=1;exitX=0.5;exitY=1;exitDx=0;exitDy=0;entryX=0.5;entryY=0;entryDx=0;entryDy=0;" parent="WIyWlLk6GJQsqaUBKTNV-1" source="k7PWy4P7F-KXpjFMV805-0" target="k7PWy4P7F-KXpjFMV805-1" edge="1">
          <mxGeometry relative="1" as="geometry" />
        </mxCell>
        <mxCell id="k7PWy4P7F-KXpjFMV805-0" value="&lt;font style=&quot;font-size: 14px;&quot;&gt;Start&lt;/font&gt;" style="ellipse;whiteSpace=wrap;html=1;fillColor=#008a00;strokeColor=#005700;fontColor=#ffffff;" parent="WIyWlLk6GJQsqaUBKTNV-1" vertex="1">
          <mxGeometry x="540" y="120" width="90" height="40" as="geometry" />
        </mxCell>
        <mxCell id="k7PWy4P7F-KXpjFMV805-5" style="edgeStyle=orthogonalEdgeStyle;rounded=0;orthogonalLoop=1;jettySize=auto;html=1;exitX=0;exitY=0.5;exitDx=0;exitDy=0;entryX=1;entryY=0.5;entryDx=0;entryDy=0;" parent="WIyWlLk6GJQsqaUBKTNV-1" source="k7PWy4P7F-KXpjFMV805-1" target="k7PWy4P7F-KXpjFMV805-3" edge="1">
          <mxGeometry relative="1" as="geometry" />
        </mxCell>
        <mxCell id="k7PWy4P7F-KXpjFMV805-6" style="edgeStyle=orthogonalEdgeStyle;rounded=0;orthogonalLoop=1;jettySize=auto;html=1;exitX=1;exitY=0.5;exitDx=0;exitDy=0;entryX=0;entryY=0.5;entryDx=0;entryDy=0;" parent="WIyWlLk6GJQsqaUBKTNV-1" source="k7PWy4P7F-KXpjFMV805-1" target="k7PWy4P7F-KXpjFMV805-4" edge="1">
          <mxGeometry relative="1" as="geometry" />
        </mxCell>
        <mxCell id="k7PWy4P7F-KXpjFMV805-1" value="Registered ?" style="rhombus;whiteSpace=wrap;html=1;fillColor=#fff2cc;strokeColor=#d6b656;" parent="WIyWlLk6GJQsqaUBKTNV-1" vertex="1">
          <mxGeometry x="540" y="200" width="90" height="80" as="geometry" />
        </mxCell>
        <mxCell id="mg_qh-bY2OpJn6G6VID9-0" style="edgeStyle=orthogonalEdgeStyle;rounded=0;orthogonalLoop=1;jettySize=auto;html=1;exitX=0.5;exitY=1;exitDx=0;exitDy=0;entryX=0.5;entryY=0;entryDx=0;entryDy=0;" parent="WIyWlLk6GJQsqaUBKTNV-1" source="k7PWy4P7F-KXpjFMV805-3" target="k7PWy4P7F-KXpjFMV805-12" edge="1">
          <mxGeometry relative="1" as="geometry" />
        </mxCell>
        <mxCell id="k7PWy4P7F-KXpjFMV805-3" value="Login" style="rounded=1;whiteSpace=wrap;html=1;" parent="WIyWlLk6GJQsqaUBKTNV-1" vertex="1">
          <mxGeometry x="390" y="220" width="90" height="40" as="geometry" />
        </mxCell>
        <mxCell id="k7PWy4P7F-KXpjFMV805-11" style="edgeStyle=orthogonalEdgeStyle;rounded=0;orthogonalLoop=1;jettySize=auto;html=1;exitX=0.5;exitY=1;exitDx=0;exitDy=0;entryX=0.5;entryY=0;entryDx=0;entryDy=0;" parent="WIyWlLk6GJQsqaUBKTNV-1" source="k7PWy4P7F-KXpjFMV805-4" target="k7PWy4P7F-KXpjFMV805-10" edge="1">
          <mxGeometry relative="1" as="geometry" />
        </mxCell>
        <mxCell id="k7PWy4P7F-KXpjFMV805-4" value="New User" style="rounded=1;whiteSpace=wrap;html=1;" parent="WIyWlLk6GJQsqaUBKTNV-1" vertex="1">
          <mxGeometry x="690" y="220" width="90" height="40" as="geometry" />
        </mxCell>
        <mxCell id="k7PWy4P7F-KXpjFMV805-7" value="Yes" style="text;html=1;align=center;verticalAlign=middle;resizable=0;points=[];autosize=1;strokeColor=none;fillColor=none;" parent="WIyWlLk6GJQsqaUBKTNV-1" vertex="1">
          <mxGeometry x="490" y="210" width="40" height="30" as="geometry" />
        </mxCell>
        <mxCell id="k7PWy4P7F-KXpjFMV805-9" value="No" style="text;html=1;align=center;verticalAlign=middle;resizable=0;points=[];autosize=1;strokeColor=none;fillColor=none;" parent="WIyWlLk6GJQsqaUBKTNV-1" vertex="1">
          <mxGeometry x="640" y="210" width="40" height="30" as="geometry" />
        </mxCell>
        <mxCell id="mg_qh-bY2OpJn6G6VID9-1" style="edgeStyle=orthogonalEdgeStyle;rounded=0;orthogonalLoop=1;jettySize=auto;html=1;entryX=1;entryY=0.5;entryDx=0;entryDy=0;" parent="WIyWlLk6GJQsqaUBKTNV-1" source="k7PWy4P7F-KXpjFMV805-10" target="k7PWy4P7F-KXpjFMV805-12" edge="1">
          <mxGeometry relative="1" as="geometry" />
        </mxCell>
        <mxCell id="k7PWy4P7F-KXpjFMV805-10" value="Registration" style="rounded=1;whiteSpace=wrap;html=1;" parent="WIyWlLk6GJQsqaUBKTNV-1" vertex="1">
          <mxGeometry x="690" y="310" width="90" height="40" as="geometry" />
        </mxCell>
        <mxCell id="PX6cCIp5oODoY7Ji9E9P-23" style="edgeStyle=orthogonalEdgeStyle;rounded=0;orthogonalLoop=1;jettySize=auto;html=1;exitX=0.5;exitY=1;exitDx=0;exitDy=0;entryX=0.5;entryY=0;entryDx=0;entryDy=0;" edge="1" parent="WIyWlLk6GJQsqaUBKTNV-1" source="k7PWy4P7F-KXpjFMV805-12" target="PX6cCIp5oODoY7Ji9E9P-21">
          <mxGeometry relative="1" as="geometry" />
        </mxCell>
        <mxCell id="k7PWy4P7F-KXpjFMV805-12" value="Dashboard" style="rounded=1;whiteSpace=wrap;html=1;" parent="WIyWlLk6GJQsqaUBKTNV-1" vertex="1">
          <mxGeometry x="380" y="305" width="110" height="50" as="geometry" />
        </mxCell>
        <mxCell id="PX6cCIp5oODoY7Ji9E9P-13" value="" style="edgeStyle=orthogonalEdgeStyle;rounded=0;orthogonalLoop=1;jettySize=auto;html=1;" edge="1" parent="WIyWlLk6GJQsqaUBKTNV-1" source="PX6cCIp5oODoY7Ji9E9P-0" target="PX6cCIp5oODoY7Ji9E9P-12">
          <mxGeometry relative="1" as="geometry" />
        </mxCell>
        <mxCell id="PX6cCIp5oODoY7Ji9E9P-40" value="" style="edgeStyle=orthogonalEdgeStyle;rounded=0;orthogonalLoop=1;jettySize=auto;html=1;" edge="1" parent="WIyWlLk6GJQsqaUBKTNV-1" source="PX6cCIp5oODoY7Ji9E9P-0" target="PX6cCIp5oODoY7Ji9E9P-7">
          <mxGeometry relative="1" as="geometry" />
        </mxCell>
        <mxCell id="PX6cCIp5oODoY7Ji9E9P-0" value="Shopkeeper&lt;br&gt;Dashboard" style="rounded=1;whiteSpace=wrap;html=1;" vertex="1" parent="WIyWlLk6GJQsqaUBKTNV-1">
          <mxGeometry x="565" y="410" width="110" height="50" as="geometry" />
        </mxCell>
        <mxCell id="PX6cCIp5oODoY7Ji9E9P-30" value="" style="edgeStyle=orthogonalEdgeStyle;rounded=0;orthogonalLoop=1;jettySize=auto;html=1;" edge="1" parent="WIyWlLk6GJQsqaUBKTNV-1" source="PX6cCIp5oODoY7Ji9E9P-4" target="PX6cCIp5oODoY7Ji9E9P-29">
          <mxGeometry relative="1" as="geometry" />
        </mxCell>
        <mxCell id="PX6cCIp5oODoY7Ji9E9P-4" value="Vendor Dashboard&lt;br&gt;(Warehouse)" style="whiteSpace=wrap;html=1;rounded=1;" vertex="1" parent="WIyWlLk6GJQsqaUBKTNV-1">
          <mxGeometry x="180" y="405" width="120" height="60" as="geometry" />
        </mxCell>
        <mxCell id="PX6cCIp5oODoY7Ji9E9P-39" value="" style="edgeStyle=orthogonalEdgeStyle;rounded=0;orthogonalLoop=1;jettySize=auto;html=1;" edge="1" parent="WIyWlLk6GJQsqaUBKTNV-1" source="PX6cCIp5oODoY7Ji9E9P-7" target="PX6cCIp5oODoY7Ji9E9P-38">
          <mxGeometry relative="1" as="geometry" />
        </mxCell>
        <mxCell id="PX6cCIp5oODoY7Ji9E9P-7" value="Feedback&lt;br&gt;Dashboard&lt;br&gt;(Reports)" style="whiteSpace=wrap;html=1;rounded=1;" vertex="1" parent="WIyWlLk6GJQsqaUBKTNV-1">
          <mxGeometry x="750" y="405" width="120" height="60" as="geometry" />
        </mxCell>
        <mxCell id="PX6cCIp5oODoY7Ji9E9P-16" style="edgeStyle=orthogonalEdgeStyle;rounded=0;orthogonalLoop=1;jettySize=auto;html=1;exitX=0;exitY=0.5;exitDx=0;exitDy=0;entryX=1;entryY=0.5;entryDx=0;entryDy=0;" edge="1" parent="WIyWlLk6GJQsqaUBKTNV-1" source="PX6cCIp5oODoY7Ji9E9P-12">
          <mxGeometry relative="1" as="geometry">
            <mxPoint x="500" y="560" as="targetPoint" />
          </mxGeometry>
        </mxCell>
        <mxCell id="PX6cCIp5oODoY7Ji9E9P-37" style="edgeStyle=orthogonalEdgeStyle;rounded=0;orthogonalLoop=1;jettySize=auto;html=1;exitX=0.5;exitY=1;exitDx=0;exitDy=0;entryX=0.5;entryY=0;entryDx=0;entryDy=0;" edge="1" parent="WIyWlLk6GJQsqaUBKTNV-1" source="PX6cCIp5oODoY7Ji9E9P-12" target="PX6cCIp5oODoY7Ji9E9P-34">
          <mxGeometry relative="1" as="geometry" />
        </mxCell>
        <mxCell id="PX6cCIp5oODoY7Ji9E9P-12" value="&lt;span&gt;Creates &lt;/span&gt;&lt;span&gt;Order &lt;/span&gt;&lt;span&gt;Request&lt;/span&gt;" style="whiteSpace=wrap;html=1;rounded=1;" vertex="1" parent="WIyWlLk6GJQsqaUBKTNV-1">
          <mxGeometry x="560" y="530" width="120" height="60" as="geometry" />
        </mxCell>
        <mxCell id="PX6cCIp5oODoY7Ji9E9P-24" style="edgeStyle=orthogonalEdgeStyle;rounded=0;orthogonalLoop=1;jettySize=auto;html=1;exitX=1;exitY=0.5;exitDx=0;exitDy=0;entryX=0;entryY=0.5;entryDx=0;entryDy=0;" edge="1" parent="WIyWlLk6GJQsqaUBKTNV-1" source="PX6cCIp5oODoY7Ji9E9P-21" target="PX6cCIp5oODoY7Ji9E9P-0">
          <mxGeometry relative="1" as="geometry" />
        </mxCell>
        <mxCell id="PX6cCIp5oODoY7Ji9E9P-27" value="" style="edgeStyle=orthogonalEdgeStyle;rounded=0;orthogonalLoop=1;jettySize=auto;html=1;" edge="1" parent="WIyWlLk6GJQsqaUBKTNV-1" source="PX6cCIp5oODoY7Ji9E9P-21" target="PX6cCIp5oODoY7Ji9E9P-26">
          <mxGeometry relative="1" as="geometry" />
        </mxCell>
        <mxCell id="PX6cCIp5oODoY7Ji9E9P-28" style="edgeStyle=orthogonalEdgeStyle;rounded=0;orthogonalLoop=1;jettySize=auto;html=1;exitX=0;exitY=0.5;exitDx=0;exitDy=0;entryX=1;entryY=0.5;entryDx=0;entryDy=0;" edge="1" parent="WIyWlLk6GJQsqaUBKTNV-1" source="PX6cCIp5oODoY7Ji9E9P-21" target="PX6cCIp5oODoY7Ji9E9P-4">
          <mxGeometry relative="1" as="geometry" />
        </mxCell>
        <mxCell id="PX6cCIp5oODoY7Ji9E9P-21" value="User&lt;br&gt;Dashboard" style="whiteSpace=wrap;html=1;rounded=1;" vertex="1" parent="WIyWlLk6GJQsqaUBKTNV-1">
          <mxGeometry x="375" y="405" width="120" height="60" as="geometry" />
        </mxCell>
        <mxCell id="PX6cCIp5oODoY7Ji9E9P-31" style="edgeStyle=orthogonalEdgeStyle;rounded=0;orthogonalLoop=1;jettySize=auto;html=1;exitX=0;exitY=0.5;exitDx=0;exitDy=0;" edge="1" parent="WIyWlLk6GJQsqaUBKTNV-1" source="PX6cCIp5oODoY7Ji9E9P-26" target="PX6cCIp5oODoY7Ji9E9P-29">
          <mxGeometry relative="1" as="geometry" />
        </mxCell>
        <mxCell id="PX6cCIp5oODoY7Ji9E9P-26" value="Receives and Reviews&amp;nbsp;Order" style="whiteSpace=wrap;html=1;rounded=1;" vertex="1" parent="WIyWlLk6GJQsqaUBKTNV-1">
          <mxGeometry x="375" y="545" width="120" height="60" as="geometry" />
        </mxCell>
        <mxCell id="PX6cCIp5oODoY7Ji9E9P-33" value="" style="edgeStyle=orthogonalEdgeStyle;rounded=0;orthogonalLoop=1;jettySize=auto;html=1;" edge="1" parent="WIyWlLk6GJQsqaUBKTNV-1" source="PX6cCIp5oODoY7Ji9E9P-29" target="PX6cCIp5oODoY7Ji9E9P-32">
          <mxGeometry relative="1" as="geometry" />
        </mxCell>
        <mxCell id="PX6cCIp5oODoY7Ji9E9P-29" value="&lt;span&gt;Receives &lt;/span&gt;&lt;span&gt;Order &lt;/span&gt;&lt;span&gt;Request and confirm time availability.&lt;/span&gt;" style="whiteSpace=wrap;html=1;rounded=1;" vertex="1" parent="WIyWlLk6GJQsqaUBKTNV-1">
          <mxGeometry x="180" y="545" width="120" height="60" as="geometry" />
        </mxCell>
        <mxCell id="PX6cCIp5oODoY7Ji9E9P-35" value="" style="edgeStyle=orthogonalEdgeStyle;rounded=0;orthogonalLoop=1;jettySize=auto;html=1;" edge="1" parent="WIyWlLk6GJQsqaUBKTNV-1" source="PX6cCIp5oODoY7Ji9E9P-32" target="PX6cCIp5oODoY7Ji9E9P-34">
          <mxGeometry relative="1" as="geometry" />
        </mxCell>
        <mxCell id="PX6cCIp5oODoY7Ji9E9P-32" value="&lt;span&gt;Ships &lt;/span&gt;&lt;span&gt;Products&lt;/span&gt;&lt;span&gt;&amp;nbsp;&lt;/span&gt;&lt;span&gt;Directly &lt;/span&gt;&lt;span&gt;to &lt;/span&gt;&lt;span&gt;Shopkeeper&lt;/span&gt;" style="whiteSpace=wrap;html=1;rounded=1;" vertex="1" parent="WIyWlLk6GJQsqaUBKTNV-1">
          <mxGeometry x="180" y="685" width="120" height="60" as="geometry" />
        </mxCell>
        <mxCell id="PX6cCIp5oODoY7Ji9E9P-41" style="edgeStyle=orthogonalEdgeStyle;rounded=0;orthogonalLoop=1;jettySize=auto;html=1;exitX=1;exitY=0.5;exitDx=0;exitDy=0;entryX=0;entryY=0.5;entryDx=0;entryDy=0;" edge="1" parent="WIyWlLk6GJQsqaUBKTNV-1" source="PX6cCIp5oODoY7Ji9E9P-34" target="PX6cCIp5oODoY7Ji9E9P-38">
          <mxGeometry relative="1" as="geometry" />
        </mxCell>
        <mxCell id="PX6cCIp5oODoY7Ji9E9P-34" value="&lt;span&gt;Completes &lt;/span&gt;&lt;span&gt;Payment and recieves invoice.&amp;nbsp;&lt;/span&gt;" style="whiteSpace=wrap;html=1;rounded=1;" vertex="1" parent="WIyWlLk6GJQsqaUBKTNV-1">
          <mxGeometry x="560" y="685" width="120" height="60" as="geometry" />
        </mxCell>
        <mxCell id="PX6cCIp5oODoY7Ji9E9P-43" style="edgeStyle=orthogonalEdgeStyle;rounded=0;orthogonalLoop=1;jettySize=auto;html=1;exitX=0.5;exitY=1;exitDx=0;exitDy=0;" edge="1" parent="WIyWlLk6GJQsqaUBKTNV-1" source="PX6cCIp5oODoY7Ji9E9P-38" target="PX6cCIp5oODoY7Ji9E9P-42">
          <mxGeometry relative="1" as="geometry" />
        </mxCell>
        <mxCell id="PX6cCIp5oODoY7Ji9E9P-38" value="&lt;span&gt;Shopkeeper/User &lt;/span&gt;&lt;span&gt;Provides &lt;/span&gt;&lt;span&gt;&amp;nbsp;&lt;/span&gt;&lt;span&gt;Feedback               &lt;/span&gt;&lt;span&gt;|&lt;/span&gt;&lt;span&gt;&amp;nbsp;&lt;/span&gt;&lt;span&gt;Ratings&amp;nbsp; &amp;nbsp; &amp;nbsp; &amp;nbsp; &amp;nbsp; &amp;nbsp; &amp;nbsp;&lt;/span&gt;" style="whiteSpace=wrap;html=1;rounded=1;" vertex="1" parent="WIyWlLk6GJQsqaUBKTNV-1">
          <mxGeometry x="750" y="540" width="120" height="60" as="geometry" />
        </mxCell>
        <mxCell id="PX6cCIp5oODoY7Ji9E9P-42" value="&lt;font style=&quot;font-size: 14px;&quot;&gt;End&lt;/font&gt;" style="ellipse;whiteSpace=wrap;html=1;fillColor=#008a00;strokeColor=#005700;fontColor=#ffffff;" vertex="1" parent="WIyWlLk6GJQsqaUBKTNV-1">
          <mxGeometry x="765" y="780" width="90" height="40" as="geometry" />
        </mxCell>
      </root>
    </mxGraphModel>
  </diagram>
</mxfile>
